<mxfile host="app.diagrams.net" modified="2022-07-29T14:19:49.530Z" agent="5.0 (Windows NT 10.0; Win64; x64) AppleWebKit/537.36 (KHTML, like Gecko) Chrome/94.0.4606.71 Safari/537.36" etag="EQJJJWQjNDeSbq5z0Orm" version="20.1.1" type="github">
  <diagram id="kgpKYQtTHZ0yAKxKKP6v" name="Page-1">
    <mxGraphModel dx="790" dy="423" grid="0" gridSize="10" guides="1" tooltips="1" connect="1" arrows="1" fold="1" page="1" pageScale="1" pageWidth="850" pageHeight="1100" math="0" shadow="0">
      <root>
        <mxCell id="0" />
        <mxCell id="1" parent="0" />
        <mxCell id="3nuBFxr9cyL0pnOWT2aG-5" value="MinIO" style="shape=umlLifeline;perimeter=lifelinePerimeter;container=1;collapsible=0;recursiveResize=0;rounded=0;shadow=0;strokeWidth=1.3;fontStyle=1;fillColor=#dae8fc;strokeColor=#141414;" parent="1" vertex="1">
          <mxGeometry x="304" y="80" width="100" height="320" as="geometry" />
        </mxCell>
        <mxCell id="3nuBFxr9cyL0pnOWT2aG-6" value="" style="points=[];perimeter=orthogonalPerimeter;rounded=0;shadow=0;strokeWidth=1;" parent="3nuBFxr9cyL0pnOWT2aG-5" vertex="1">
          <mxGeometry x="45" y="80" width="10" height="220" as="geometry" />
        </mxCell>
        <mxCell id="iUdH29MKVtawj4gwliKM-9" style="edgeStyle=orthogonalEdgeStyle;rounded=0;orthogonalLoop=1;jettySize=auto;html=1;fontSize=9;entryX=1.233;entryY=0.358;entryDx=0;entryDy=0;entryPerimeter=0;" edge="1" parent="3nuBFxr9cyL0pnOWT2aG-5">
          <mxGeometry relative="1" as="geometry">
            <mxPoint x="55" y="110" as="sourcePoint" />
            <mxPoint x="57.33000000000004" y="141.92000000000007" as="targetPoint" />
            <Array as="points">
              <mxPoint x="55" y="110" />
              <mxPoint x="70" y="110" />
              <mxPoint x="70" y="142" />
            </Array>
          </mxGeometry>
        </mxCell>
        <mxCell id="iUdH29MKVtawj4gwliKM-25" value="2. catch event" style="edgeLabel;html=1;align=left;verticalAlign=middle;resizable=0;points=[];fontSize=10;labelPosition=right;verticalLabelPosition=middle;" vertex="1" connectable="0" parent="iUdH29MKVtawj4gwliKM-9">
          <mxGeometry x="-0.2239" relative="1" as="geometry">
            <mxPoint y="8" as="offset" />
          </mxGeometry>
        </mxCell>
        <mxCell id="iUdH29MKVtawj4gwliKM-11" style="edgeStyle=orthogonalEdgeStyle;rounded=0;orthogonalLoop=1;jettySize=auto;html=1;fontSize=9;entryX=1.233;entryY=0.358;entryDx=0;entryDy=0;entryPerimeter=0;" edge="1" parent="3nuBFxr9cyL0pnOWT2aG-5">
          <mxGeometry relative="1" as="geometry">
            <mxPoint x="55" y="160.00000000000006" as="sourcePoint" />
            <mxPoint x="57.33000000000004" y="191.92000000000013" as="targetPoint" />
            <Array as="points">
              <mxPoint x="55" y="160" />
              <mxPoint x="70" y="160" />
              <mxPoint x="70" y="192" />
            </Array>
          </mxGeometry>
        </mxCell>
        <mxCell id="iUdH29MKVtawj4gwliKM-24" value="3. get trigger from &lt;br&gt;database" style="edgeLabel;html=1;align=left;verticalAlign=middle;resizable=0;points=[];fontSize=10;labelPosition=right;verticalLabelPosition=middle;" vertex="1" connectable="0" parent="iUdH29MKVtawj4gwliKM-11">
          <mxGeometry x="-0.2239" y="-2" relative="1" as="geometry">
            <mxPoint x="3" y="8" as="offset" />
          </mxGeometry>
        </mxCell>
        <mxCell id="3nuBFxr9cyL0pnOWT2aG-8" value="1. occur a specific event&#xa;(e.g. upload a file)" style="verticalAlign=bottom;endArrow=block;entryX=0;entryY=0;shadow=0;strokeWidth=1;fontSize=9;" parent="1" target="3nuBFxr9cyL0pnOWT2aG-6" edge="1">
          <mxGeometry relative="1" as="geometry">
            <mxPoint x="160" y="160" as="sourcePoint" />
          </mxGeometry>
        </mxCell>
        <object label="User" User="" id="iUdH29MKVtawj4gwliKM-1">
          <mxCell style="shape=umlActor;verticalLabelPosition=bottom;verticalAlign=top;html=1;outlineConnect=0;fillColor=#dae8fc;strokeColor=#6c8ebf;fontStyle=1" vertex="1" parent="1">
            <mxGeometry x="144" y="70" width="30" height="60" as="geometry" />
          </mxCell>
        </object>
        <mxCell id="iUdH29MKVtawj4gwliKM-4" value="" style="endArrow=none;dashed=1;html=1;rounded=0;" edge="1" parent="1">
          <mxGeometry width="50" height="50" relative="1" as="geometry">
            <mxPoint x="160" y="400" as="sourcePoint" />
            <mxPoint x="160" y="150" as="targetPoint" />
          </mxGeometry>
        </mxCell>
        <mxCell id="iUdH29MKVtawj4gwliKM-5" value="函数计算" style="shape=umlLifeline;perimeter=lifelinePerimeter;container=1;collapsible=0;recursiveResize=0;rounded=0;shadow=0;strokeWidth=1.3;fontStyle=1;fillColor=#dae8fc;strokeColor=#0D0D0D;" vertex="1" parent="1">
          <mxGeometry x="520" y="80" width="100" height="320" as="geometry" />
        </mxCell>
        <mxCell id="iUdH29MKVtawj4gwliKM-13" style="edgeStyle=orthogonalEdgeStyle;rounded=0;orthogonalLoop=1;jettySize=auto;html=1;fontSize=9;entryX=1.233;entryY=0.358;entryDx=0;entryDy=0;entryPerimeter=0;" edge="1" parent="iUdH29MKVtawj4gwliKM-5">
          <mxGeometry relative="1" as="geometry">
            <mxPoint x="55" y="233" as="sourcePoint" />
            <mxPoint x="57.32999999999993" y="264.9200000000001" as="targetPoint" />
            <Array as="points">
              <mxPoint x="55" y="233" />
              <mxPoint x="70" y="233" />
              <mxPoint x="70" y="265" />
            </Array>
          </mxGeometry>
        </mxCell>
        <mxCell id="iUdH29MKVtawj4gwliKM-19" value="5. &lt;font style=&quot;font-size: 11px;&quot;&gt;handle&lt;/font&gt;" style="edgeLabel;html=1;align=left;verticalAlign=middle;resizable=0;points=[];fontSize=9;labelPosition=right;verticalLabelPosition=middle;" vertex="1" connectable="0" parent="iUdH29MKVtawj4gwliKM-13">
          <mxGeometry x="-0.1225" y="-2" relative="1" as="geometry">
            <mxPoint x="2" y="3" as="offset" />
          </mxGeometry>
        </mxCell>
        <mxCell id="iUdH29MKVtawj4gwliKM-17" value="" style="endArrow=classic;html=1;rounded=0;fontSize=9;exitX=1.093;exitY=0.666;exitDx=0;exitDy=0;exitPerimeter=0;entryX=-0.056;entryY=0.278;entryDx=0;entryDy=0;entryPerimeter=0;" edge="1" parent="1" target="iUdH29MKVtawj4gwliKM-21">
          <mxGeometry width="50" height="50" relative="1" as="geometry">
            <mxPoint x="359.92999999999995" y="311.8399999999999" as="sourcePoint" />
            <mxPoint x="569.3500000000001" y="311.8399999999999" as="targetPoint" />
          </mxGeometry>
        </mxCell>
        <mxCell id="iUdH29MKVtawj4gwliKM-18" value="&lt;font style=&quot;font-size: 9px;&quot;&gt;4. invoke function&lt;/font&gt;" style="edgeLabel;html=1;align=center;verticalAlign=bottom;resizable=0;points=[];fontSize=8;labelPosition=center;verticalLabelPosition=top;" vertex="1" connectable="0" parent="iUdH29MKVtawj4gwliKM-17">
          <mxGeometry x="-0.0894" y="-2" relative="1" as="geometry">
            <mxPoint y="-4" as="offset" />
          </mxGeometry>
        </mxCell>
        <mxCell id="iUdH29MKVtawj4gwliKM-20" value="" style="endArrow=classic;html=1;rounded=0;fontSize=11;" edge="1" parent="1" source="iUdH29MKVtawj4gwliKM-5">
          <mxGeometry width="50" height="50" relative="1" as="geometry">
            <mxPoint x="460" y="350" as="sourcePoint" />
            <mxPoint x="360" y="350" as="targetPoint" />
          </mxGeometry>
        </mxCell>
        <mxCell id="iUdH29MKVtawj4gwliKM-22" value="6. return response" style="edgeLabel;html=1;align=center;verticalAlign=top;resizable=0;points=[];fontSize=11;labelPosition=center;verticalLabelPosition=bottom;" vertex="1" connectable="0" parent="iUdH29MKVtawj4gwliKM-20">
          <mxGeometry x="0.0977" y="1" relative="1" as="geometry">
            <mxPoint y="-24" as="offset" />
          </mxGeometry>
        </mxCell>
        <mxCell id="iUdH29MKVtawj4gwliKM-21" value="" style="points=[];perimeter=orthogonalPerimeter;rounded=0;shadow=0;strokeWidth=1;" vertex="1" parent="1">
          <mxGeometry x="565" y="292" width="10" height="70" as="geometry" />
        </mxCell>
      </root>
    </mxGraphModel>
  </diagram>
</mxfile>
